<svg xmlns="http://www.w3.org/2000/svg" width="370" height="370" viewBox="0 0 370 370" version="1.1"><path d="M 29.316 185.943 C 24.535 188.114, 22 192.118, 22 197.500 C 22 204.827, 26.485 209.556, 34.472 210.651 C 38.706 211.232, 38.991 211.470, 39.526 214.883 C 41.604 228.153, 42.664 232.760, 46.004 243.028 C 56.452 275.147, 77.784 302.722, 106.500 321.230 C 114.186 326.184, 123.984 331.349, 124.574 330.759 C 124.781 330.553, 124.449 326.146, 123.836 320.966 C 121.818 303.894, 125.231 283.851, 132.970 267.327 C 137.514 257.625, 141.249 252.024, 148.741 243.680 C 156.519 235.016, 158.368 230.478, 157.746 221.583 C 157.474 217.687, 156.251 211.882, 155.029 208.683 C 151.973 200.686, 143.276 191.515, 134.704 187.250 L 128.171 184 80.836 184.022 C 36.497 184.043, 33.235 184.164, 29.316 185.943 M 268.475 190.201 C 262.400 200.605, 252.459 213.297, 244.244 221.136 C 230.645 234.114, 218.403 241.071, 194.136 249.614 C 154.675 263.505, 138.410 277.714, 134.892 301.368 C 133.709 309.324, 134.761 324.930, 137.038 333.174 C 138 336.659, 138.317 336.865, 145.768 338.824 C 161.906 343.068, 165.334 343.476, 185 343.488 C 206.312 343.501, 213.122 342.516, 230.139 336.955 C 253.096 329.453, 271.008 318.318, 288.554 300.643 C 306.548 282.518, 316.621 266.254, 324.574 242.486 C 326.511 236.697, 328.836 227.292, 329.742 221.584 L 331.388 211.206 336.151 210.574 C 348.697 208.910, 353.050 194.719, 343.298 187.277 L 339.659 184.500 305.906 184.201 L 272.153 183.902 268.475 190.201" stroke="none" fill="#a4c2b9" fill-rule="evenodd"/><path d="M 170.500 0.995 C 90.434 8.238, 25.713 62.759, 6.084 139.500 C -2.935 174.759, -0.517 217.434, 12.395 250.866 C 36.551 313.413, 90.032 356.609, 157 367.660 C 172.742 370.257, 199.692 370.008, 216.271 367.113 C 284.450 355.204, 338.950 308.151, 360.533 242.565 C 366.905 223.199, 372.066 187.933, 370.157 176.803 C 369.562 173.336, 368.573 166.085, 367.960 160.688 C 362.876 115.991, 337.807 70.900, 302.049 42.137 C 275.918 21.118, 246.863 8.135, 214.500 3.018 C 199.855 0.703, 182.537 -0.094, 170.500 0.995 M 102.545 30.179 C 99.689 37.316, 95.244 56.037, 93.958 66.340 C 92.236 80.141, 93.198 102.167, 95.975 112.500 C 98.702 122.650, 106.370 138.816, 113.023 148.439 C 121.395 160.550, 133.957 171.831, 150.904 182.458 L 155.308 185.219 154.648 178.122 C 153.937 170.472, 155.263 155.571, 157.374 147.500 L 158.681 142.500 152.906 131.500 C 149.729 125.450, 146.178 118.064, 145.015 115.087 C 142.511 108.677, 139.898 97.995, 140.839 98.012 C 141.202 98.019, 142.590 99.707, 143.922 101.762 C 148.582 108.953, 163.166 128, 164.012 128 C 164.481 128, 165.179 127.012, 165.562 125.805 C 167.419 119.953, 181.011 101.152, 188.839 93.606 L 192.879 89.712 188.852 83.782 C 176.377 65.412, 153.444 47.659, 125.500 34.739 C 116.578 30.613, 105.529 26, 104.572 26 C 104.377 26, 103.465 27.881, 102.545 30.179 M 257.149 72.569 C 222.660 86.231, 194.551 106.890, 179.403 129.712 C 173.826 138.115, 168.108 151.149, 165.329 161.794 C 163.334 169.434, 162.766 174.161, 162.660 184 C 162.522 196.779, 164.361 210, 166.276 210 C 168.988 210, 177.661 202.987, 187.609 192.749 C 199.308 180.709, 206.003 172.646, 220.405 153.254 C 225.407 146.519, 229.639 141.648, 229.809 142.430 C 230.275 144.574, 224.533 160.992, 220.551 168.898 C 204.798 200.180, 181.498 228.948, 160.970 242.461 C 150.630 249.268, 145.766 254.103, 142.890 260.435 C 139.738 267.376, 140.477 268.971, 144.610 264.143 C 151.597 255.980, 163.574 249.187, 184.500 241.517 C 221.123 228.095, 246.606 209.899, 260.222 187.449 C 265.322 179.040, 271.564 164.445, 274.204 154.758 C 276.181 147.504, 276.453 144.128, 276.445 127 C 276.438 110.543, 276.086 105.897, 274.194 97.227 C 271.856 86.510, 267.280 70.949, 266.153 69.881 C 265.794 69.540, 261.742 70.750, 257.149 72.569 M 0.300 185 C 0.300 188.025, 0.487 189.262, 0.716 187.750 C 0.945 186.238, 0.945 183.762, 0.716 182.250 C 0.487 180.738, 0.300 181.975, 0.300 185 M 27.760 186.214 C 16.779 192.579, 20.933 209.518, 33.778 210.753 L 38.649 211.221 39.940 220.360 C 43.722 247.137, 57.122 274.954, 76.851 296.990 C 85.210 306.327, 101.849 319.498, 113.212 325.772 C 126.651 333.193, 125.885 333.158, 124.770 326.302 C 124.251 323.111, 124.043 314.425, 124.308 307 C 124.902 290.367, 127.303 280.344, 134.041 266.362 C 138.429 257.255, 147.788 243.851, 152.400 240.067 C 157.736 235.689, 159.869 225.560, 157.556 215.586 C 154.536 202.564, 147.066 192.964, 135.376 187.081 L 129.253 184 80.376 184.023 C 32.075 184.046, 31.456 184.071, 27.760 186.214 M 268.616 188.750 C 264.452 196.932, 253.971 210.787, 245.651 219.107 C 232.692 232.065, 220.149 239.597, 198.265 247.559 C 170.075 257.816, 158.179 263.957, 148.822 273.085 C 141.414 280.311, 136.895 288.380, 134.907 297.935 C 133.580 304.312, 134.197 322.479, 136.035 331.139 L 137.231 336.777 144.636 338.976 C 157.420 342.771, 166.699 343.929, 184.619 343.965 C 204.852 344.006, 214.577 342.557, 231.112 337.037 C 265.533 325.547, 294.087 302.407, 312.407 271.159 C 320.767 256.899, 328.572 234.995, 330.458 220.500 C 331.670 211.189, 331.763 211, 335.118 211 C 345.562 211, 352.018 200.401, 347.248 191.085 C 343.718 184.190, 342.581 184, 304.782 184 L 271.034 184 268.616 188.750" stroke="none" fill="#1d251d" fill-rule="evenodd"/><path d="M 175.269 0.693 C 176.242 0.947, 177.592 0.930, 178.269 0.656 C 178.946 0.382, 178.150 0.175, 176.500 0.195 C 174.850 0.215, 174.296 0.439, 175.269 0.693 M 192.269 0.693 C 193.242 0.947, 194.592 0.930, 195.269 0.656 C 195.946 0.382, 195.150 0.175, 193.500 0.195 C 191.850 0.215, 191.296 0.439, 192.269 0.693 M 102.545 30.179 C 99.689 37.316, 95.244 56.037, 93.958 66.340 C 92.236 80.141, 93.198 102.167, 95.975 112.500 C 98.702 122.650, 106.370 138.816, 113.023 148.439 C 121.395 160.550, 133.957 171.831, 150.904 182.458 L 155.308 185.219 154.648 178.122 C 153.937 170.472, 155.263 155.571, 157.374 147.500 L 158.681 142.500 152.906 131.500 C 149.729 125.450, 146.178 118.064, 145.015 115.087 C 142.511 108.677, 139.898 97.995, 140.839 98.012 C 141.202 98.019, 142.590 99.707, 143.922 101.762 C 148.582 108.953, 163.166 128, 164.012 128 C 164.481 128, 165.179 127.012, 165.562 125.805 C 167.419 119.953, 181.011 101.152, 188.839 93.606 L 192.879 89.712 188.852 83.782 C 176.377 65.412, 153.444 47.659, 125.500 34.739 C 116.578 30.613, 105.529 26, 104.572 26 C 104.377 26, 103.465 27.881, 102.545 30.179 M 257.149 72.569 C 222.660 86.231, 194.551 106.890, 179.403 129.712 C 173.826 138.115, 168.108 151.149, 165.329 161.794 C 163.334 169.434, 162.766 174.161, 162.660 184 C 162.522 196.779, 164.361 210, 166.276 210 C 168.988 210, 177.661 202.987, 187.609 192.749 C 199.308 180.709, 206.003 172.646, 220.405 153.254 C 225.407 146.519, 229.639 141.648, 229.809 142.430 C 230.275 144.574, 224.533 160.992, 220.551 168.898 C 204.798 200.180, 181.498 228.948, 160.970 242.461 C 150.630 249.268, 145.766 254.103, 142.890 260.435 C 139.738 267.376, 140.477 268.971, 144.610 264.143 C 151.597 255.980, 163.574 249.187, 184.500 241.517 C 221.123 228.095, 246.606 209.899, 260.222 187.449 C 265.322 179.040, 271.564 164.445, 274.204 154.758 C 276.181 147.504, 276.453 144.128, 276.445 127 C 276.438 110.543, 276.086 105.897, 274.194 97.227 C 271.856 86.510, 267.280 70.949, 266.153 69.881 C 265.794 69.540, 261.742 70.750, 257.149 72.569 M 369.115 172.500 C 369.161 173.600, 369.560 175.625, 370 177 C 370.785 179.450, 370.802 179.440, 370.885 176.500 C 370.931 174.850, 370.533 172.825, 370 172 C 369.201 170.764, 369.045 170.852, 369.115 172.500 M 270 186 C 269.411 187.100, 269.155 188, 269.430 188 C 269.705 188, 270.411 187.100, 271 186 C 271.589 184.900, 271.845 184, 271.570 184 C 271.295 184, 270.589 184.900, 270 186 M 0.232 193 C 0.232 194.925, 0.438 195.713, 0.689 194.750 C 0.941 193.787, 0.941 192.213, 0.689 191.250 C 0.438 190.287, 0.232 191.075, 0.232 193 M 145.500 195 C 148.209 197.750, 150.650 200, 150.925 200 C 151.200 200, 149.209 197.750, 146.500 195 C 143.791 192.250, 141.350 190, 141.075 190 C 140.800 190, 142.791 192.250, 145.500 195 M 21.158 197 C 21.158 198.375, 21.385 198.938, 21.662 198.250 C 21.940 197.563, 21.940 196.438, 21.662 195.750 C 21.385 195.063, 21.158 195.625, 21.158 197 M 369.158 197 C 369.158 198.375, 369.385 198.938, 369.662 198.250 C 369.940 197.563, 369.940 196.438, 369.662 195.750 C 369.385 195.063, 369.158 195.625, 369.158 197 M 250.437 214.250 L 247.500 217.500 250.750 214.563 C 253.779 211.825, 254.460 211, 253.687 211 C 253.515 211, 252.052 212.463, 250.437 214.250 M 39.158 216 C 39.158 217.375, 39.385 217.938, 39.662 217.250 C 39.940 216.563, 39.940 215.438, 39.662 214.750 C 39.385 214.063, 39.158 214.625, 39.158 216 M 330.158 219 C 330.158 220.375, 330.385 220.938, 330.662 220.250 C 330.940 219.563, 330.940 218.438, 330.662 217.750 C 330.385 217.063, 330.158 217.625, 330.158 219 M 158.252 223.500 C 158.263 225.700, 158.468 226.482, 158.707 225.238 C 158.946 223.994, 158.937 222.194, 158.687 221.238 C 158.437 220.282, 158.241 221.300, 158.252 223.500 M 240.437 224.250 L 237.500 227.500 240.750 224.563 C 243.779 221.825, 244.460 221, 243.687 221 C 243.515 221, 242.052 222.463, 240.437 224.250 M 148 273.500 C 145.571 275.975, 143.809 278, 144.084 278 C 144.359 278, 146.571 275.975, 149 273.500 C 151.429 271.025, 153.191 269, 152.916 269 C 152.641 269, 150.429 271.025, 148 273.500 M 288.477 301.250 L 280.500 309.500 288.750 301.523 C 296.412 294.115, 297.456 293, 296.727 293 C 296.576 293, 292.864 296.712, 288.477 301.250 M 80.500 301 C 83.766 304.300, 86.662 307, 86.937 307 C 87.212 307, 84.766 304.300, 81.500 301 C 78.234 297.700, 75.338 295, 75.063 295 C 74.788 295, 77.234 297.700, 80.500 301 M 134.158 302 C 134.158 303.375, 134.385 303.938, 134.662 303.250 C 134.940 302.563, 134.940 301.438, 134.662 300.750 C 134.385 300.063, 134.158 300.625, 134.158 302 M 123.336 311 C 123.336 315.125, 123.513 316.813, 123.728 314.750 C 123.944 312.688, 123.944 309.313, 123.728 307.250 C 123.513 305.188, 123.336 306.875, 123.336 311 M 134.195 318.500 C 134.215 320.150, 134.439 320.704, 134.693 319.731 C 134.947 318.758, 134.930 317.408, 134.656 316.731 C 134.382 316.054, 134.175 316.850, 134.195 318.500 M 166.750 343.662 C 167.438 343.940, 168.563 343.940, 169.250 343.662 C 169.938 343.385, 169.375 343.158, 168 343.158 C 166.625 343.158, 166.063 343.385, 166.750 343.662 M 171.269 369.693 C 172.242 369.947, 173.592 369.930, 174.269 369.656 C 174.946 369.382, 174.150 369.175, 172.500 369.195 C 170.850 369.215, 170.296 369.439, 171.269 369.693 M 196.269 369.693 C 197.242 369.947, 198.592 369.930, 199.269 369.656 C 199.946 369.382, 199.150 369.175, 197.500 369.195 C 195.850 369.215, 195.296 369.439, 196.269 369.693" stroke="none" fill="#8db3a1" fill-rule="evenodd"/></svg>