<svg xmlns="http://www.w3.org/2000/svg" width="302" height="294" viewBox="0 0 302 294" version="1.1"><path d="M 6.198 147.673 C 0.302 150.578, -1.879 159.011, 1.698 165.066 C 3.478 168.079, 9.298 171, 13.520 171 C 15.370 171, 16 171.532, 16 173.093 C 16 176.569, 19.951 194.834, 22.118 201.373 C 25.624 211.954, 35.682 231.156, 42.352 240 C 50.930 251.375, 63.935 263.679, 75.236 271.111 C 83.249 276.381, 93.098 282, 94.321 282 C 94.534 282, 94.504 275.587, 94.253 267.750 C 93.883 256.153, 94.165 251.729, 95.770 243.990 C 99.218 227.365, 106.163 213.467, 117.006 201.493 C 125.782 191.802, 127.656 184.809, 124.575 173.236 C 121.788 162.766, 114.281 153.710, 104.123 148.563 L 99.066 146 54.283 146.023 C 14.969 146.043, 9.097 146.244, 6.198 147.673 M 229.479 148.067 C 228.140 152.284, 216.704 168.149, 209.422 175.889 C 195.652 190.527, 186.375 196.173, 159.628 206.195 C 125.369 219.031, 113.534 227.497, 106.777 244 C 104.771 248.898, 104.533 251.141, 104.594 264.500 C 104.682 283.709, 105.647 286.870, 112 288.748 C 129.049 293.787, 154.582 295.460, 171.198 292.628 C 222.265 283.923, 261.884 250.851, 278.851 202.765 C 281.586 195.013, 283.567 186.650, 285.486 174.750 C 285.996 171.584, 286.478 171, 288.577 171 C 292.832 171, 297.868 168.265, 299.974 164.810 C 303.660 158.765, 302.157 152.370, 296.088 148.280 C 292.745 146.027, 292.329 146, 261.420 146 C 230.675 146, 230.123 146.036, 229.479 148.067" stroke="none" fill="#34948c" fill-rule="evenodd"/><path d="M 74.971 2.575 C 69.387 17.263, 66 36.555, 66 53.673 C 66 74.407, 69.154 86.591, 79.120 104.351 C 85.495 115.710, 92.930 124.624, 102.853 132.802 C 109.271 138.091, 120.824 146, 122.131 146 C 122.334 146, 122.525 140.712, 122.555 134.250 C 122.589 126.899, 123.258 119.654, 124.340 114.899 L 126.070 107.299 120.145 95.899 C 114.702 85.427, 111.110 76.119, 109.570 68.500 L 108.964 65.500 111.232 68.154 C 112.479 69.614, 117.325 76.025, 122 82.401 C 126.675 88.777, 130.754 93.995, 131.065 93.997 C 131.375 93.999, 132.433 92.315, 133.415 90.256 C 136.568 83.643, 144.277 72.906, 151.171 65.524 L 157.880 58.340 151.309 49.584 C 140.605 35.322, 123.003 21.540, 102.085 11.043 C 93.276 6.622, 77.903 -0, 76.449 0 C 76.175 0, 75.510 1.159, 74.971 2.575 M 217 43.064 C 193.535 52.283, 173.987 64.724, 159 79.977 C 139.444 99.882, 130.125 121.451, 130.042 147 C 130.013 156.212, 131.571 167.950, 133.018 169.410 C 135.193 171.604, 150.390 158.332, 163.246 143.011 C 167.636 137.780, 175.901 127.270, 181.614 119.656 C 192.840 104.692, 194.185 104.341, 189.602 117.575 C 185.992 127.996, 182.878 134.386, 175.504 146.500 C 160.619 170.954, 144.031 190.094, 129.500 199.581 C 120.491 205.462, 114.247 211.467, 111.905 216.500 C 108.756 223.268, 109.749 223.464, 116.277 217.365 C 124.027 210.123, 129.862 206.999, 151.500 198.506 C 160.850 194.837, 172.325 189.795, 177 187.304 C 207.228 171.195, 225.445 148.432, 233.265 117 C 236.219 105.129, 236.181 81.923, 233.185 67.197 C 230.762 55.288, 226.266 39.973, 225.218 40.058 C 224.823 40.091, 221.125 41.443, 217 43.064 M 114.500 156 C 115.495 157.100, 116.535 158, 116.810 158 C 117.085 158, 116.495 157.100, 115.500 156 C 114.505 154.900, 113.465 154, 113.190 154 C 112.915 154, 113.505 154.900, 114.500 156" stroke="none" fill="#8cc494" fill-rule="evenodd"/></svg>